<svg xmlns="http://www.w3.org/2000/svg" xmlns:xlink="http://www.w3.org/1999/xlink" version="1.1" width="256" height="256" viewBox="0 0 256 256" xml:space="preserve">
<g style="stroke: none; stroke-width: 0; stroke-dasharray: none; stroke-linecap: butt; stroke-linejoin: miter; stroke-miterlimit: 10; fill: none; fill-rule: nonzero; opacity: 1;" transform="translate(1.4065934065934016 1.4065934065934016) scale(2.81 2.81)">
	<circle cx="44.094" cy="49.704" r="11.054" style="stroke: none; stroke-width: 1; stroke-dasharray: none; stroke-linecap: butt; stroke-linejoin: miter; stroke-miterlimit: 10; fill: rgb(219,228,237); fill-rule: nonzero; opacity: 1;" transform="  matrix(1 0 0 1 0 0) "/>
	<path d="M 55.153 49.707 c 0 -6.105 -4.949 -11.054 -11.054 -11.054 c -1.335 0 -2.614 0.237 -3.799 0.67 c -4.073 -1.686 -9.776 -2.687 -17.848 -2.687 c 3.002 -42.31 64.074 -37.977 61.071 4.333 l 5.16 11.716 c 1.044 2.369 -0.597 5.053 -3.181 5.204 l -2.95 0.173 c -0.486 0.028 -0.775 0.555 -0.539 0.98 c 1.155 2.079 1.413 4.54 0.713 6.814 l -0.097 0.314 c -0.273 0.886 -3.978 -0.807 -4.528 -0.069 c -0.243 0.326 2.766 3.149 2.481 3.443 c -1.225 1.26 -1.956 2.65 -2.029 4.216 c -0.087 1.897 -1.61 3.401 -3.507 3.327 c -20.584 -0.805 -22.331 -9.798 -23.628 -19.099 C 53.708 55.961 55.153 53.004 55.153 49.707 z" style="stroke: none; stroke-width: 1; stroke-dasharray: none; stroke-linecap: butt; stroke-linejoin: miter; stroke-miterlimit: 10; fill: rgb(201,207,212); fill-rule: nonzero; opacity: 1;" transform=" matrix(1 0 0 1 0 0) " stroke-linecap="round"/>
	<path d="M 26.26 83.013 c 1.894 -12.002 2.17 -28.541 -0.54 -46.318 c 6.376 0.236 11.08 1.179 14.58 2.628 c -4.234 1.549 -7.255 5.614 -7.255 10.384 c 0 6.105 4.949 11.054 11.054 11.054 c 2.809 0 5.372 -1.05 7.322 -2.776 c 1.003 7.187 2.275 14.19 12.299 17.374 c 0.015 2.576 0.269 5.128 0.786 7.654 H 26.26 z" style="stroke: none; stroke-width: 1; stroke-dasharray: none; stroke-linecap: butt; stroke-linejoin: miter; stroke-miterlimit: 10; fill: rgb(176,182,188); fill-rule: nonzero; opacity: 1;" transform=" matrix(1 0 0 1 0 0) " stroke-linecap="round"/>
	<circle cx="57.638" cy="17.978" r="4.248" style="stroke: none; stroke-width: 1; stroke-dasharray: none; stroke-linecap: butt; stroke-linejoin: miter; stroke-miterlimit: 10; fill: rgb(247,191,80); fill-rule: nonzero; opacity: 1;" transform="  matrix(1 0 0 1 0 0) "/>
	<circle cx="74.28800000000001" cy="40.568" r="4.248" style="stroke: none; stroke-width: 1; stroke-dasharray: none; stroke-linecap: butt; stroke-linejoin: miter; stroke-miterlimit: 10; fill: rgb(126,198,197); fill-rule: nonzero; opacity: 1;" transform="  matrix(1 0 0 1 0 0) "/>
	<circle cx="44.098" cy="49.708" r="4.248" style="stroke: none; stroke-width: 1; stroke-dasharray: none; stroke-linecap: butt; stroke-linejoin: miter; stroke-miterlimit: 10; fill: rgb(241,123,123); fill-rule: nonzero; opacity: 1;" transform="  matrix(1 0 0 1 0 0) "/>
	<circle cx="5.248" cy="17.978" r="4.248" style="stroke: none; stroke-width: 1; stroke-dasharray: none; stroke-linecap: butt; stroke-linejoin: miter; stroke-miterlimit: 10; fill: rgb(247,191,80); fill-rule: nonzero; opacity: 1;" transform="  matrix(1 0 0 1 0 0) "/>
	<circle cx="5.248" cy="31.308" r="4.248" style="stroke: none; stroke-width: 1; stroke-dasharray: none; stroke-linecap: butt; stroke-linejoin: miter; stroke-miterlimit: 10; fill: rgb(126,198,197); fill-rule: nonzero; opacity: 1;" transform="  matrix(1 0 0 1 0 0) "/>
	<circle cx="5.248" cy="49.708" r="4.248" style="stroke: none; stroke-width: 1; stroke-dasharray: none; stroke-linecap: butt; stroke-linejoin: miter; stroke-miterlimit: 10; fill: rgb(241,123,123); fill-rule: nonzero; opacity: 1;" transform="  matrix(1 0 0 1 0 0) "/>
	<path d="M 44.098 61.761 c -6.647 0 -12.055 -5.407 -12.055 -12.054 s 5.408 -12.055 12.055 -12.055 c 6.647 0 12.055 5.408 12.055 12.055 S 50.745 61.761 44.098 61.761 z M 44.098 39.653 c -5.544 0 -10.055 4.51 -10.055 10.055 s 4.51 10.054 10.055 10.054 c 5.544 0 10.055 -4.51 10.055 -10.054 S 49.642 39.653 44.098 39.653 z" style="stroke: none; stroke-width: 1; stroke-dasharray: none; stroke-linecap: butt; stroke-linejoin: miter; stroke-miterlimit: 10; fill: rgb(0,0,0); fill-rule: nonzero; opacity: 1;" transform=" matrix(1 0 0 1 0 0) " stroke-linecap="round"/>
	<path d="M 75.185 78.089 c -0.059 0 -0.117 -0.001 -0.177 -0.004 c -21.916 -0.857 -23.331 -11.006 -24.579 -19.961 c -0.047 -0.331 0.076 -0.664 0.327 -0.887 c 2.158 -1.91 3.397 -4.655 3.397 -7.531 c 0 -5.544 -4.511 -10.055 -10.055 -10.055 c -1.188 0 -2.35 0.205 -3.455 0.609 c -0.235 0.086 -0.495 0.08 -0.726 -0.015 c -4.245 -1.757 -9.958 -2.611 -17.466 -2.611 c -0.277 0 -0.543 -0.115 -0.732 -0.318 c -0.189 -0.203 -0.285 -0.476 -0.266 -0.752 c 0.538 -7.579 2.892 -14.042 6.999 -19.21 c 0.752 -0.948 1.571 -1.856 2.433 -2.699 c 1.081 -1.057 2.255 -2.04 3.492 -2.92 c 9.91 -7.054 23.896 -7.68 34.802 -1.557 c 10.649 5.978 16.237 17.126 15.358 30.612 l 5.061 11.49 c 0.622 1.413 0.513 3.042 -0.292 4.359 c -0.806 1.316 -2.206 2.156 -3.746 2.246 l -2.427 0.143 c 1.068 2.206 1.272 4.771 0.549 7.12 l -0.097 0.314 c -0.408 1.328 -1.997 0.99 -3.402 0.688 c -0.037 -0.008 -0.076 -0.016 -0.116 -0.024 c 0.01 0.012 0.021 0.022 0.03 0.034 c 1.24 1.416 1.988 2.271 1.201 3.079 c -1.117 1.149 -1.689 2.316 -1.746 3.565 C 79.442 76.24 77.538 78.089 75.185 78.089 z M 52.482 58.366 c 1.181 8.412 2.767 16.945 22.604 17.721 c 1.298 0.031 2.405 -0.991 2.469 -2.374 c 0.07 -1.527 0.682 -2.979 1.817 -4.323 c -0.229 -0.282 -0.542 -0.64 -0.779 -0.91 c -1.263 -1.442 -1.898 -2.166 -1.293 -2.977 c 0.65 -0.874 1.88 -0.61 3.303 -0.307 c 0.347 0.074 0.864 0.185 1.209 0.224 c 0.563 -1.964 0.32 -4.104 -0.673 -5.893 c -0.279 -0.501 -0.281 -1.102 -0.005 -1.606 c 0.277 -0.504 0.785 -0.825 1.358 -0.858 l 2.95 -0.173 c 0.9 -0.053 1.687 -0.524 2.156 -1.293 c 0.471 -0.77 0.532 -1.684 0.169 -2.509 l -5.16 -11.716 c -0.065 -0.149 -0.094 -0.312 -0.082 -0.474 c 0.907 -12.793 -4.314 -23.354 -14.325 -28.975 c -10.244 -5.75 -23.371 -5.172 -32.664 1.442 c -1.152 0.819 -2.246 1.734 -3.252 2.719 c -0.803 0.785 -1.565 1.631 -2.266 2.514 c -3.659 4.605 -5.837 10.334 -6.481 17.043 c 7.048 0.079 12.554 0.937 16.788 2.613 c 1.213 -0.4 2.481 -0.603 3.772 -0.603 c 6.647 0 12.055 5.408 12.055 12.055 C 56.153 52.973 54.822 56.098 52.482 58.366 z" style="stroke: none; stroke-width: 1; stroke-dasharray: none; stroke-linecap: butt; stroke-linejoin: miter; stroke-miterlimit: 10; fill: rgb(0,0,0); fill-rule: nonzero; opacity: 1;" transform=" matrix(1 0 0 1 0 0) " stroke-linecap="round"/>
	<path d="M 64.505 84.013 H 26.259 c -0.292 0 -0.57 -0.128 -0.76 -0.351 c -0.19 -0.222 -0.273 -0.517 -0.228 -0.806 c 2.093 -13.26 1.896 -30.031 -0.541 -46.011 c -0.045 -0.295 0.044 -0.594 0.243 -0.816 c 0.198 -0.222 0.473 -0.347 0.783 -0.334 c 6.204 0.23 11.086 1.114 14.925 2.704 c 0.381 0.158 0.626 0.533 0.618 0.945 c -0.009 0.412 -0.269 0.776 -0.656 0.918 c -3.947 1.445 -6.599 5.24 -6.599 9.445 c 0 5.544 4.51 10.054 10.055 10.054 c 2.455 0 4.82 -0.897 6.659 -2.525 c 0.277 -0.243 0.662 -0.315 1.01 -0.189 c 0.346 0.128 0.593 0.436 0.644 0.8 c 1.101 7.886 2.577 13.69 11.612 16.559 c 0.413 0.131 0.694 0.514 0.697 0.947 c 0.015 2.539 0.271 5.048 0.765 7.459 c 0.061 0.294 -0.015 0.6 -0.205 0.832 C 65.09 83.879 64.806 84.013 64.505 84.013 z M 27.423 82.013 H 63.3 c -0.333 -1.936 -0.523 -3.922 -0.569 -5.929 c -9.41 -3.282 -11.146 -10.208 -12.059 -16.274 c -1.945 1.268 -4.225 1.951 -6.573 1.951 c -6.647 0 -12.055 -5.407 -12.055 -12.054 c 0 -4.207 2.214 -8.072 5.697 -10.242 c -2.982 -0.925 -6.563 -1.49 -10.853 -1.717 C 29.116 53.099 29.308 69.087 27.423 82.013 z" style="stroke: none; stroke-width: 1; stroke-dasharray: none; stroke-linecap: butt; stroke-linejoin: miter; stroke-miterlimit: 10; fill: rgb(0,0,0); fill-rule: nonzero; opacity: 1;" transform=" matrix(1 0 0 1 0 0) " stroke-linecap="round"/>
	<path d="M 57.638 23.228 c -2.895 0 -5.249 -2.355 -5.249 -5.249 c 0 -2.894 2.355 -5.248 5.249 -5.248 c 2.894 0 5.248 2.355 5.248 5.248 C 62.886 20.874 60.532 23.228 57.638 23.228 z M 57.638 14.731 c -1.792 0 -3.249 1.457 -3.249 3.248 s 1.457 3.249 3.249 3.249 c 1.791 0 3.248 -1.458 3.248 -3.249 S 59.429 14.731 57.638 14.731 z" style="stroke: none; stroke-width: 1; stroke-dasharray: none; stroke-linecap: butt; stroke-linejoin: miter; stroke-miterlimit: 10; fill: rgb(0,0,0); fill-rule: nonzero; opacity: 1;" transform=" matrix(1 0 0 1 0 0) " stroke-linecap="round"/>
	<path d="M 74.29 45.815 c -2.894 0 -5.248 -2.355 -5.248 -5.248 c 0 -2.894 2.355 -5.249 5.248 -5.249 c 2.895 0 5.249 2.355 5.249 5.249 C 79.54 43.461 77.185 45.815 74.29 45.815 z M 74.29 37.319 c -1.791 0 -3.248 1.458 -3.248 3.249 s 1.457 3.248 3.248 3.248 c 1.792 0 3.249 -1.457 3.249 -3.248 S 76.082 37.319 74.29 37.319 z" style="stroke: none; stroke-width: 1; stroke-dasharray: none; stroke-linecap: butt; stroke-linejoin: miter; stroke-miterlimit: 10; fill: rgb(0,0,0); fill-rule: nonzero; opacity: 1;" transform=" matrix(1 0 0 1 0 0) " stroke-linecap="round"/>
	<path d="M 53.389 18.979 H 9.495 c -0.552 0 -1 -0.448 -1 -1 s 0.448 -1 1 -1 h 43.894 c 0.553 0 1 0.448 1 1 S 53.942 18.979 53.389 18.979 z" style="stroke: none; stroke-width: 1; stroke-dasharray: none; stroke-linecap: butt; stroke-linejoin: miter; stroke-miterlimit: 10; fill: rgb(0,0,0); fill-rule: nonzero; opacity: 1;" transform=" matrix(1 0 0 1 0 0) " stroke-linecap="round"/>
	<path d="M 71.184 38.676 c -0.176 0 -0.354 -0.046 -0.516 -0.144 l -10.323 -6.22 H 9.495 c -0.552 0 -1 -0.448 -1 -1 s 0.448 -1 1 -1 h 51.129 c 0.182 0 0.36 0.05 0.517 0.144 l 10.561 6.364 c 0.473 0.285 0.625 0.899 0.34 1.373 C 71.854 38.503 71.523 38.676 71.184 38.676 z" style="stroke: none; stroke-width: 1; stroke-dasharray: none; stroke-linecap: butt; stroke-linejoin: miter; stroke-miterlimit: 10; fill: rgb(0,0,0); fill-rule: nonzero; opacity: 1;" transform=" matrix(1 0 0 1 0 0) " stroke-linecap="round"/>
	<path d="M 44.098 54.955 c -2.894 0 -5.248 -2.355 -5.248 -5.248 c 0 -2.895 2.355 -5.249 5.248 -5.249 c 2.894 0 5.249 2.354 5.249 5.249 C 49.347 52.601 46.992 54.955 44.098 54.955 z M 44.098 46.458 c -1.791 0 -3.248 1.458 -3.248 3.249 s 1.457 3.248 3.248 3.248 c 1.791 0 3.249 -1.457 3.249 -3.248 S 45.889 46.458 44.098 46.458 z" style="stroke: none; stroke-width: 1; stroke-dasharray: none; stroke-linecap: butt; stroke-linejoin: miter; stroke-miterlimit: 10; fill: rgb(0,0,0); fill-rule: nonzero; opacity: 1;" transform=" matrix(1 0 0 1 0 0) " stroke-linecap="round"/>
	<path d="M 39.85 50.707 H 9.495 c -0.552 0 -1 -0.447 -1 -1 s 0.448 -1 1 -1 H 39.85 c 0.552 0 1 0.447 1 1 S 40.402 50.707 39.85 50.707 z" style="stroke: none; stroke-width: 1; stroke-dasharray: none; stroke-linecap: butt; stroke-linejoin: miter; stroke-miterlimit: 10; fill: rgb(0,0,0); fill-rule: nonzero; opacity: 1;" transform=" matrix(1 0 0 1 0 0) " stroke-linecap="round"/>
	<path d="M 5.246 23.228 c -2.894 0 -5.248 -2.355 -5.248 -5.249 c 0 -2.894 2.355 -5.248 5.248 -5.248 c 2.894 0 5.249 2.355 5.249 5.248 C 10.495 20.874 8.141 23.228 5.246 23.228 z M 5.246 14.731 c -1.791 0 -3.248 1.457 -3.248 3.248 s 1.457 3.249 3.248 3.249 s 3.249 -1.458 3.249 -3.249 S 7.037 14.731 5.246 14.731 z" style="stroke: none; stroke-width: 1; stroke-dasharray: none; stroke-linecap: butt; stroke-linejoin: miter; stroke-miterlimit: 10; fill: rgb(0,0,0); fill-rule: nonzero; opacity: 1;" transform=" matrix(1 0 0 1 0 0) " stroke-linecap="round"/>
	<path d="M 5.246 36.56 c -2.894 0 -5.248 -2.355 -5.248 -5.248 c 0 -2.894 2.355 -5.249 5.248 -5.249 c 2.894 0 5.249 2.355 5.249 5.249 C 10.495 34.205 8.141 36.56 5.246 36.56 z M 5.246 28.063 c -1.791 0 -3.248 1.458 -3.248 3.249 s 1.457 3.248 3.248 3.248 s 3.249 -1.457 3.249 -3.248 S 7.037 28.063 5.246 28.063 z" style="stroke: none; stroke-width: 1; stroke-dasharray: none; stroke-linecap: butt; stroke-linejoin: miter; stroke-miterlimit: 10; fill: rgb(0,0,0); fill-rule: nonzero; opacity: 1;" transform=" matrix(1 0 0 1 0 0) " stroke-linecap="round"/>
	<path d="M 5.246 54.955 c -2.894 0 -5.248 -2.355 -5.248 -5.248 c 0 -2.895 2.355 -5.249 5.248 -5.249 c 2.894 0 5.249 2.354 5.249 5.249 C 10.495 52.601 8.141 54.955 5.246 54.955 z M 5.246 46.458 c -1.791 0 -3.248 1.458 -3.248 3.249 s 1.457 3.248 3.248 3.248 s 3.249 -1.457 3.249 -3.248 S 7.037 46.458 5.246 46.458 z" style="stroke: none; stroke-width: 1; stroke-dasharray: none; stroke-linecap: butt; stroke-linejoin: miter; stroke-miterlimit: 10; fill: rgb(0,0,0); fill-rule: nonzero; opacity: 1;" transform=" matrix(1 0 0 1 0 0) " stroke-linecap="round"/>
</g>
</svg>